# xmcd
#
# Track frame offsets: 
#        150
#        11772
#        24595
#        55106
#        84516
#        104028
#        129576
#        149799
#        169830
#        181016
#        203694
#        220677
#        243267
#        280002
#        305119
#
# Disc length: 4488 seconds
#
# Revision: 2
# Processed by: cddbd v1.4PL0 Copyright (c) Steve Scherf et al.
# Submitted via: ExactAudioCopy v0.95a3
#
DISCID=d611860f
DTITLE=Led Zeppelin - The Best
DYEAR=1900
DGENRE=Rock
TTITLE0=Communication Breakdown
TTITLE1=Good Times Bad Times
TTITLE2=Babe I Gonna Leave You
TTITLE3=Dazed And Confused
TTITLE4=Heartbreaker
TTITLE5=Whole Lotta Love
TTITLE6=Ramble On
TTITLE7=Moby Dick
TTITLE8=Immigrant Song
TTITLE9=Gallows Pole
TTITLE10=Rock And Roll
TTITLE11=Black Dog
TTITLE12=Stairway To Heaven
TTITLE13=The Song Remains The Same
TTITLE14=No Quarter
EXTD=
EXTT0=
EXTT1=
EXTT2=
EXTT3=
EXTT4=
EXTT5=
EXTT6=
EXTT7=
EXTT8=
EXTT9=
EXTT10=
EXTT11=
EXTT12=
EXTT13=
EXTT14=
PLAYORDER=
